<?xml version="1.0" standalone="no"?>
<!DOCTYPE svg PUBLIC "-//W3C//DTD SVG 20010904//EN"
 "http://www.w3.org/TR/2001/REC-SVG-20010904/DTD/svg10.dtd">
<svg version="1.0" xmlns="http://www.w3.org/2000/svg"
 width="79.000000pt" height="117.000000pt" viewBox="0 0 79.000000 117.000000"
 preserveAspectRatio="xMidYMid meet">

<g transform="translate(0.000000,117.000000) scale(0.100000,-0.100000)"
fill="#000000" stroke="none">
<path d="M125 1141 c-76 -46 -112 -136 -65 -161 11 -6 20 -9 21 -8 0 2 2 18 5
37 9 67 56 133 84 116 10 -6 -3 -56 -94 -350 -60 -198 -67 -240 -29 -202 18
17 66 160 113 334 19 68 36 120 39 117 3 -3 20 -100 38 -214 18 -115 37 -218
43 -230 6 -11 19 -20 29 -20 15 0 20 14 31 76 15 94 69 311 109 433 22 69 26
91 15 91 -7 0 -20 -10 -28 -22 -18 -28 -77 -222 -102 -335 -11 -46 -21 -83
-24 -83 -4 0 -14 69 -24 153 -19 157 -39 251 -58 274 -15 19 -68 16 -103 -6z"/>
<path d="M645 579 c-20 -23 -71 -87 -112 -143 l-74 -101 -49 -1 c-46 -1 -80
-16 -80 -35 0 -4 22 -9 49 -11 l49 -3 -39 -65 c-52 -86 -73 -143 -65 -175 4
-15 12 -25 17 -23 6 2 39 60 73 128 50 102 65 126 85 128 34 5 93 -7 86 -18
-3 -5 -6 -43 -7 -85 0 -59 3 -80 17 -95 23 -25 65 -26 97 -1 29 23 82 117 70
125 -5 3 -14 -5 -19 -17 -16 -35 -63 -87 -79 -87 -8 0 -19 11 -25 24 -20 42
37 312 92 435 15 35 17 46 7 53 -28 17 -57 7 -93 -33z m-12 -139 c-19 -63 -37
-120 -38 -127 -4 -14 -85 4 -85 19 0 20 148 234 156 225 2 -1 -13 -54 -33
-117z"/>
</g>
</svg>
