<svg 
 xmlns="http://www.w3.org/2000/svg"
 xmlns:xlink="http://www.w3.org/1999/xlink"
 width="19px" height="16px">
<path fill-rule="evenodd"  fill="rgb(235, 235, 235)"
 d="M11.211,3.812 C11.202,4.270 11.778,3.917 12.311,4.182 C12.844,4.447 13.905,4.749 13.045,7.133 C13.045,7.133 11.842,10.727 10.844,10.454 C10.844,10.454 9.295,10.516 9.010,7.133 C8.725,3.751 8.147,0.316 6.442,0.492 C4.738,0.668 2.264,2.334 0.585,4.551 C0.585,4.551 1.048,5.708 1.674,5.657 C2.299,5.607 2.260,4.696 2.774,4.920 C3.288,5.143 4.083,5.106 4.608,8.240 C5.133,11.374 5.914,13.022 6.809,14.512 C7.703,16.003 8.611,16.003 9.377,16.003 C10.142,16.003 12.597,14.225 14.879,11.192 C17.161,8.159 18.923,4.504 18.923,3.812 C18.923,3.121 19.569,0.572 17.080,0.123 C14.591,-0.326 11.244,2.189 11.211,3.812 Z"/>
</svg>