<svg id="svg" xmlns="http://www.w3.org/2000/svg" xmlns:xlink="http://www.w3.org/1999/xlink" width="400" height="162.5" viewBox="0, 0, 400,162.5"><g id="svgg"><path id="path0" d="M279.761 12.263 C 270.726 21.636,266.602 28.684,262.257 42.173 C 255.985 61.647,253.205 63.945,240.849 59.868 C 226.962 55.284,222.865 39.067,232.500 26.818 C 243.965 12.242,232.200 10.300,218.065 24.435 C 190.621 51.879,199.236 78.525,235.080 77.063 C 249.795 76.463,255.010 77.068,255.006 79.375 C 255.002 81.252,251.654 82.500,246.620 82.500 C 226.666 82.500,212.510 101.012,212.504 127.114 C 212.497 156.796,233.776 172.765,253.091 157.572 C 259.325 152.668,259.377 152.668,263.815 157.572 C 271.213 165.747,293.536 163.607,303.362 153.781 C 312.147 144.996,305.844 138.808,295.006 145.576 C 284.536 152.115,281.247 143.425,281.273 109.282 C 281.301 71.574,282.449 67.143,293.562 61.843 C 332.776 43.143,339.175 -0.000,302.734 -0.000 C 292.652 -0.000,290.446 1.178,279.761 12.263 M314.991 20.625 C 314.974 26.158,305.718 39.148,297.747 44.824 C 288.757 51.226,288.027 48.667,294.967 35.066 C 301.540 22.180,315.015 12.462,314.991 20.625 M123.056 43.892 C 112.576 51.232,117.315 65.000,130.321 65.000 C 138.584 65.000,145.000 59.130,145.000 51.571 C 145.000 40.372,133.718 36.424,123.056 43.892 M88.056 48.892 C 80.420 54.241,80.733 64.302,88.648 67.908 C 100.782 73.437,113.706 57.206,104.500 48.000 C 100.422 43.922,94.710 44.232,88.056 48.892 M346.195 69.678 C 307.344 87.326,312.604 124.377,352.500 114.099 C 368.838 109.891,375.000 110.089,375.000 114.825 C 375.000 115.942,369.094 117.629,361.875 118.574 C 329.308 122.836,317.500 129.259,317.500 142.711 C 317.500 175.074,375.858 166.670,384.784 133.022 C 386.086 128.113,388.426 126.032,393.290 125.459 C 402.083 124.422,402.950 115.000,394.252 115.000 C 389.989 115.000,387.713 112.812,385.441 106.528 C 381.747 96.311,371.435 91.285,358.084 93.193 L 348.750 94.527 357.500 90.970 C 375.647 83.592,378.927 78.483,371.082 69.814 C 365.671 63.835,359.136 63.799,346.195 69.678 M2.588 74.836 C -0.728 81.032,-0.804 147.560,2.496 156.238 C 4.666 161.947,6.213 162.701,14.371 162.026 L 23.750 161.250 24.044 144.352 C 24.359 126.241,30.453 106.320,36.373 104.049 C 40.634 102.414,40.885 104.219,40.077 130.669 C 39.176 160.134,47.821 168.927,67.624 158.686 C 75.516 154.605,77.934 145.000,71.069 145.000 C 67.624 145.000,67.354 141.508,68.879 116.738 C 70.401 92.020,70.088 87.945,66.381 84.238 C 58.270 76.128,37.412 80.892,29.104 92.754 C 25.637 97.703,25.491 97.390,26.778 87.792 C 28.972 71.430,9.883 61.205,2.588 74.836 M147.201 80.625 C 143.207 94.811,143.623 154.079,147.752 159.054 C 149.684 161.382,154.145 162.474,159.786 162.001 L 168.750 161.250 168.912 146.250 C 169.071 131.549,176.171 110.161,182.111 106.490 C 183.584 105.580,183.211 107.876,181.284 111.592 C 173.001 127.557,189.689 133.311,203.685 119.315 C 214.000 109.000,217.491 92.925,211.426 83.668 C 205.164 74.111,191.607 75.097,181.469 85.846 L 173.598 94.191 174.577 85.811 C 176.823 66.573,152.457 61.957,147.201 80.625 M295.088 77.336 C 293.665 79.995,292.500 88.995,292.500 97.336 C 292.500 118.301,299.339 118.857,307.576 98.562 C 310.688 90.896,314.828 83.029,316.776 81.081 C 322.042 75.815,318.436 72.500,307.440 72.500 C 300.345 72.500,296.968 73.822,295.088 77.336 M100.557 84.152 C 67.141 100.622,67.329 155.051,100.822 161.335 C 118.792 164.706,140.000 155.765,140.000 144.819 C 140.000 138.752,138.591 138.779,130.682 145.000 C 122.738 151.249,116.989 151.342,111.531 145.310 C 107.486 140.841,107.687 140.383,115.795 135.600 C 154.900 112.527,140.644 64.394,100.557 84.152 M117.344 105.660 C 115.986 110.577,112.691 117.221,110.021 120.425 L 105.166 126.250 105.083 119.748 C 104.989 112.389,109.437 97.894,113.300 92.967 C 117.612 87.468,120.160 95.463,117.344 105.660 M254.519 115.625 C 253.179 140.566,249.192 150.267,242.881 143.947 C 233.761 134.815,240.876 95.000,251.628 95.000 C 255.060 95.000,255.470 97.925,254.519 115.625 M372.500 131.028 C 372.500 142.012,350.454 150.949,342.072 143.363 C 335.274 137.211,336.318 135.515,349.375 131.500 C 364.824 126.749,372.500 126.593,372.500 131.028 " stroke="none" fill="#000000" fill-rule="evenodd"></path></g></svg>